<?xml version="1.0" standalone="no"?>
<!DOCTYPE svg PUBLIC "-//W3C//DTD SVG 20010904//EN"
 "http://www.w3.org/TR/2001/REC-SVG-20010904/DTD/svg10.dtd">
<svg version="1.0" xmlns="http://www.w3.org/2000/svg"
 width="35.000000pt" height="35.000000pt" viewBox="0 0 35.000000 35.000000"
 preserveAspectRatio="xMidYMid meet">
<metadata>
Created by potrace 1.16, written by Peter Selinger 2001-2019
</metadata>
<g transform="translate(0.000000,35.000000) scale(0.015021,-0.016827)"
fill="#000000" stroke="none">
<path d="M1055 1790 c-298 -47 -543 -255 -641 -545 -22 -66 -28 -103 -32 -212
-5 -151 5 -219 49 -334 89 -232 288 -410 536 -481 112 -32 314 -32 426 0 262
75 459 262 549 522 31 91 32 101 33 250 0 135 -3 165 -23 230 -106 339 -390
560 -736 575 -56 2 -128 0 -161 -5z m290 -55 c39 -8 115 -37 170 -64 200 -99
341 -272 401 -492 26 -97 24 -281 -4 -382 -35 -125 -108 -251 -189 -329 l-38
-37 -19 44 c-10 25 -22 45 -27 45 -6 0 -5 -9 1 -21 14 -25 6 -36 -14 -19 -13
10 -19 9 -32 -4 -8 -9 -20 -14 -25 -11 -19 12 -8 -17 16 -43 19 -21 27 -24 37
-14 9 9 9 12 -4 12 -18 0 -33 29 -20 42 4 4 22 2 40 -4 26 -10 31 -16 26 -33
-13 -39 -136 -113 -251 -151 -81 -27 -100 -29 -238 -29 -130 0 -159 3 -220 23
-207 69 -361 203 -455 397 -63 131 -75 184 -75 335 0 102 5 139 24 200 84 271
302 478 566 535 81 18 244 18 330 0z"/>
<path d="M1050 1574 c-111 -24 -205 -77 -296 -168 -125 -125 -178 -254 -176
-431 2 -273 187 -506 458 -575 141 -36 294 -18 427 52 87 46 214 174 254 258
63 130 80 282 48 419 -38 159 -171 325 -316 394 -129 62 -267 80 -399 51z
m277 -48 c147 -39 290 -159 356 -298 42 -87 57 -154 57 -249 l0 -70 -62 -71
c-137 -155 -178 -195 -178 -171 0 14 20 39 56 71 33 29 52 52 46 56 -6 3 -26
-6 -44 -22 -58 -51 -172 -122 -194 -122 -30 0 -39 28 -17 53 10 10 40 30 66
43 66 34 50 47 -21 18 -32 -13 -76 -26 -99 -30 -40 -6 -41 -5 -48 25 -16 74
29 140 135 197 38 21 68 40 65 42 -2 2 -39 -8 -82 -22 -66 -22 -336 -96 -349
-96 -2 0 -4 13 -4 29 l0 29 100 13 c55 7 105 18 111 25 17 21 32 138 25 197
l-7 55 -237 57 c-130 32 -238 58 -240 60 -19 16 101 113 188 153 111 50 253
60 377 28z m-552 -244 c31 -87 30 -256 -1 -371 -6 -21 -5 -23 22 -17 16 3 62
12 102 20 l73 14 -3 -31 c-3 -31 -3 -31 -143 -69 -77 -21 -147 -38 -157 -38
-9 0 -21 14 -28 33 -18 48 -24 213 -11 278 19 89 100 247 121 234 4 -3 16 -26
25 -53z m54 12 c6 4 11 2 11 -4 0 -7 7 -10 15 -6 8 3 15 1 15 -4 0 -5 14 -8
30 -6 17 2 30 -1 30 -6 0 -6 7 -8 15 -4 8 3 15 1 15 -5 0 -6 7 -9 15 -5 8 3
15 2 15 -3 0 -4 14 -7 30 -6 17 1 30 -1 30 -5 0 -4 11 -8 25 -9 57 -4 65 -6
65 -14 0 -4 4 -6 9 -3 5 3 23 1 40 -5 l31 -11 0 -81 c0 -111 -5 -124 -41 -122
-16 1 -29 -1 -29 -5 0 -3 -12 -5 -27 -5 -16 1 -32 -1 -38 -4 -5 -3 -23 -6 -40
-7 -16 -1 -32 -3 -35 -4 -3 -1 -9 -2 -14 -1 -5 1 -13 -4 -17 -10 -6 -10 -11
-10 -23 0 -12 10 -16 11 -16 1 0 -7 -7 -10 -15 -7 -8 4 -17 2 -21 -4 -4 -7
-10 -6 -19 1 -9 8 -14 6 -19 -6 -5 -12 -9 -14 -20 -5 -11 9 -15 8 -20 -5 -13
-34 -25 1 -16 46 14 68 12 209 -3 268 -13 49 -11 75 4 51 4 -6 12 -8 18 -5z
m416 -409 c-29 -43 -39 -86 -31 -129 l6 -33 -107 -6 c-149 -9 -207 -21 -287
-62 -80 -40 -84 -39 -130 45 -21 39 -24 51 -14 55 25 10 563 163 575 164 7 1
2 -14 -12 -34z m460 -102 c-36 -126 -119 -225 -240 -290 -62 -33 -191 -73
-234 -73 l-25 0 26 28 c45 46 56 103 45 232 -1 19 3 26 19 28 18 3 21 -1 17
-23 -11 -54 53 -74 112 -35 35 24 45 25 45 6 0 -7 6 -19 14 -25 21 -18 72 23
155 127 41 50 77 90 79 87 2 -2 -4 -30 -13 -62z m-468 -110 c12 -42 9 -125 -6
-160 -16 -39 -82 -93 -114 -93 -72 0 -218 68 -297 138 l-45 39 49 31 c57 36
124 52 256 62 161 12 149 13 157 -17z"/>
<path d="M946 1179 c-20 -23 -26 -41 -25 -72 1 -36 2 -38 9 -17 4 14 8 20 9
13 1 -7 8 -10 16 -7 11 5 15 -1 15 -18 0 -32 -9 -41 -29 -26 -9 7 -5 0 8 -15
14 -15 29 -27 35 -27 7 0 6 3 -1 8 -10 6 -10 16 -1 45 6 20 15 34 20 31 5 -4
20 4 33 16 24 23 45 20 45 -6 0 -8 -7 -14 -15 -14 -8 0 -15 -4 -15 -10 0 -5 5
-10 10 -10 21 0 9 -20 -27 -45 -36 -24 -37 -25 -12 -25 32 0 94 41 93 61 -1 8
-5 34 -9 58 -5 31 -4 42 4 37 20 -13 11 11 -11 30 -19 15 -20 16 -9 2 12 -16
11 -18 -7 -18 -12 0 -30 -14 -43 -31 -15 -22 -24 -27 -29 -18 -11 16 -1 39 16
39 18 0 18 8 -1 26 -8 9 -15 11 -15 5 0 -6 -7 -11 -15 -11 -8 0 -15 -4 -15
-10 0 -5 4 -10 9 -10 5 0 7 -8 4 -19 -4 -16 -16 -19 -55 -12 -16 2 -7 23 21
52 16 16 26 29 21 29 -4 0 -20 -14 -34 -31z"/>
</g>
</svg>
